<?xml version="1.0" encoding="utf-8"?>
<!-- Generator: Adobe Illustrator 16.0.0, SVG Export Plug-In . SVG Version: 6.00 Build 0)  -->
<!DOCTYPE svg PUBLIC "-//W3C//DTD SVG 1.1//EN" "http://www.w3.org/Graphics/SVG/1.1/DTD/svg11.dtd">
<svg version="1.1" id="圖層_1" xmlns="http://www.w3.org/2000/svg" xmlns:xlink="http://www.w3.org/1999/xlink" x="0px" y="0px"
	 width="447.465px" height="357.558px" viewBox="0 0 447.465 357.558" enable-background="new 0 0 447.465 357.558"
	 xml:space="preserve">
<polygon points="67.333,356.334 72.333,151 109.333,179 176,170.334 207.333,138 214.333,198 259.333,363.667 "/>
<polyline points="109,214 115.334,212.334 114.334,207.334 105.334,207 107.334,212.666 "/>
<polygon points="175.334,207 175.334,211.334 178.334,212 186,210.334 182,206 "/>
<polygon fill="#FFFFFF" stroke="#000000" stroke-miterlimit="10" points="100.669,209.998 113.669,208.664 125.003,210.998 
	110.336,216.331 101.336,211.331 "/>
<polygon fill="#FFFFFF" stroke="#000000" stroke-miterlimit="10" points="161.337,207.33 180.337,205.33 184.671,209.663 
	173.004,212.996 "/>
<polygon points="112.004,207.996 109.336,214.331 99.669,207.998 "/>
<polyline points="175.334,206 173.004,211.996 164.004,206.663 "/>
<polygon fill="#FFFFFF" stroke="#000000" stroke-miterlimit="10" points="136.004,226.997 148.004,225.664 143.004,233.33 "/>
<line stroke="#FFFFFF" stroke-miterlimit="10" x1="142.671" y1="236.33" x2="144.004" y2="252.997"/>
<line fill="none" stroke="#FFFFFF" stroke-miterlimit="10" x1="132.004" y1="256.664" x2="147.004" y2="260.664"/>
</svg>
