<?xml version="1.0" encoding="utf-8"?>
<!-- Generator: Adobe Illustrator 16.0.0, SVG Export Plug-In . SVG Version: 6.00 Build 0)  -->
<!DOCTYPE svg PUBLIC "-//W3C//DTD SVG 1.1//EN" "http://www.w3.org/Graphics/SVG/1.1/DTD/svg11.dtd">
<svg version="1.1" id="圖層_1" xmlns="http://www.w3.org/2000/svg" xmlns:xlink="http://www.w3.org/1999/xlink" x="0px" y="0px"
	 width="447.465px" height="357.558px" viewBox="0 0 447.465 357.558" enable-background="new 0 0 447.465 357.558"
	 xml:space="preserve">
<polygon points="65,355.333 71,149.333 97,176.667 173.667,169.333 177,120.667 211.667,175.333 257,362.667 "/>
<polygon fill="#FFFFFF" stroke="#000000" stroke-miterlimit="10" points="92.334,207.333 112.334,206.667 121,210.667 105,214 "/>
<polygon fill="#FFFFFF" stroke="#000000" stroke-miterlimit="10" points="160.334,208 182.334,205.333 191,208.667 174.334,212 "/>
<polygon fill="#FFFFFF" stroke="#000000" stroke-miterlimit="10" points="133,226.667 147,225.333 140.334,232 "/>
<line stroke="#FFFFFF" stroke-miterlimit="10" x1="141" y1="238.667" x2="142.334" y2="258.667"/>
<line stroke="#FFFFFF" stroke-miterlimit="10" x1="140.334" y1="268.667" x2="165.667" y2="258"/>
<polyline points="101,214 107.334,212.333 106.334,207.333 97.334,207 99.334,212.667 "/>
<polygon points="165.334,207 165.334,211.333 168.334,212 176,210.333 172,206 "/>
</svg>
