<?xml version="1.0" encoding="utf-8"?>
<!-- Generator: Adobe Illustrator 16.0.0, SVG Export Plug-In . SVG Version: 6.00 Build 0)  -->
<!DOCTYPE svg PUBLIC "-//W3C//DTD SVG 1.1//EN" "http://www.w3.org/Graphics/SVG/1.1/DTD/svg11.dtd">
<svg version="1.1" id="圖層_1" xmlns="http://www.w3.org/2000/svg" xmlns:xlink="http://www.w3.org/1999/xlink" x="0px" y="0px"
	 width="447.465px" height="357.559px" viewBox="0 0 447.465 357.559" enable-background="new 0 0 447.465 357.559"
	 xml:space="preserve">
<polyline points="62.365,356.501 103.712,153.136 131.596,185.828 177.75,181.501 201.308,147.366 256.596,357.559 "/>
<polygon fill="#FFFFFF" stroke="#000000" stroke-miterlimit="10" points="110.923,214.674 123.904,211.309 134.48,213.713 
	125.346,217.559 "/>
<polygon fill="#FFFFFF" stroke="#000000" stroke-miterlimit="10" points="171.5,211.79 185.442,209.386 194.096,212.751 
	184.962,216.116 "/>
<polygon points="120.25,209.75 121.5,214.5 125.25,215.5 129.25,212.5 "/>
<polygon points="180.608,209.254 184.518,213.897 188.676,212.364 189.271,206.757 "/>
<polygon stroke="#FFFFFF" stroke-miterlimit="10" points="145.75,227 157.5,226.75 151.5,233.25 "/>
<line stroke="#FFFFFF" stroke-miterlimit="10" x1="151.75" y1="238.75" x2="153.25" y2="250.25"/>
<line stroke="#FFFFFF" stroke-miterlimit="10" x1="143" y1="256" x2="153.5" y2="259"/>
</svg>
