<?xml version="1.0" encoding="utf-8"?>
<!-- Generator: Adobe Illustrator 16.0.0, SVG Export Plug-In . SVG Version: 6.00 Build 0)  -->
<!DOCTYPE svg PUBLIC "-//W3C//DTD SVG 1.1//EN" "http://www.w3.org/Graphics/SVG/1.1/DTD/svg11.dtd">
<svg version="1.1" id="圖層_1" xmlns="http://www.w3.org/2000/svg" xmlns:xlink="http://www.w3.org/1999/xlink" x="0px" y="0px"
	 width="447.465px" height="357.559px" viewBox="0 0 447.465 357.559" enable-background="new 0 0 447.465 357.559"
	 xml:space="preserve">
<polygon points="289,355.334 283,149.334 257,176.667 187.001,168 164.334,132.667 151.001,182.667 97,362.667 "/>
<polygon fill="#FFFFFF" stroke="#000000" stroke-miterlimit="10" points="170,199.5 188.5,197 198,202 182,204 "/>
<polygon fill="#FFFFFF" stroke="#000000" stroke-miterlimit="10" points="231,204 245.5,202.5 256,208.5 242.5,210 "/>
<polygon points="186.5,197 188,203.5 190.5,203.5 197,198 "/>
<polygon points="243.5,201.5 245.5,210 249,211 251.5,205 "/>
<polygon stroke="#FFFFFF" stroke-miterlimit="10" points="207.5,220.5 220,221.5 212,229 "/>
<line fill="none" stroke="#FFFFFF" stroke-miterlimit="10" x1="211" y1="233.5" x2="208" y2="247.5"/>
<line fill="none" stroke="#FFFFFF" stroke-miterlimit="10" x1="204" y1="258.5" x2="215" y2="256"/>
</svg>
