<?xml version="1.0" encoding="utf-8"?>
<!-- Generator: Adobe Illustrator 16.0.0, SVG Export Plug-In . SVG Version: 6.00 Build 0)  -->
<!DOCTYPE svg PUBLIC "-//W3C//DTD SVG 1.1//EN" "http://www.w3.org/Graphics/SVG/1.1/DTD/svg11.dtd">
<svg version="1.1" id="圖層_1" xmlns="http://www.w3.org/2000/svg" xmlns:xlink="http://www.w3.org/1999/xlink" x="0px" y="0px"
	 width="447.465px" height="357.559px" viewBox="0 0 447.465 357.559" enable-background="new 0 0 447.465 357.559"
	 xml:space="preserve">
<polyline points="62.334,357.559 84.333,172.893 98,129.559 121,173.893 179.667,177.893 204,142.893 242.667,356.117 "/>
<polygon fill="#FFFFFF" stroke="#000000" stroke-miterlimit="10" points="102.667,195.334 113.333,194.667 126.667,199 
	113.667,199.667 "/>
<polygon fill="#FFFFFF" stroke="#000000" stroke-miterlimit="10" points="156.667,201 168.333,199.667 179,204 164,204 "/>
<polygon fill="#FFFFFF" stroke="#000000" stroke-miterlimit="10" points="130,211.667 143,212.334 136.333,218.334 "/>
<polygon points="113.333,194.667 115.333,198 117.667,199.667 121,197.667 "/>
<polyline points="167.333,198.979 167,204.021 170.667,204.021 173.667,201.729 "/>
<line fill="none" stroke="#FFFFFF" stroke-miterlimit="10" x1="136" y1="221.667" x2="136.333" y2="235.667"/>
<line fill="none" stroke="#FFFFFF" stroke-miterlimit="10" x1="132.667" y1="248" x2="145.333" y2="243"/>
</svg>
