<?xml version="1.0" encoding="utf-8"?>
<!-- Generator: Adobe Illustrator 27.0.1, SVG Export Plug-In . SVG Version: 6.00 Build 0)  -->
<svg version="1.1" id="圖層_1" xmlns="http://www.w3.org/2000/svg" xmlns:xlink="http://www.w3.org/1999/xlink" x="0px" y="0px"
	 viewBox="0 0 60 60" style="enable-background:new 0 0 60 60;" xml:space="preserve">
<g>
	<path d="M1.2,40.1l4-3c1.1,2.1,2.7,3,4.4,3c2.6,0,3.9-1.4,3.9-5.4V15.3h5.9v19.8c0,5.5-2.8,10-9.1,10C6,45.2,3.1,43.5,1.2,40.1z"/>
	<path d="M24.9,30.1c0-9.7,6.2-15.3,13.6-15.3c3.7,0,6.7,1.8,8.6,3.8L44,22.3c-1.5-1.4-3.2-2.5-5.4-2.5c-4.4,0-7.8,3.8-7.8,10.1
		c0,6.4,3,10.2,7.6,10.2c2.5,0,4.5-1.2,6.1-2.9l3.1,3.6c-2.4,2.8-5.5,4.3-9.3,4.3C30.9,45.2,24.9,39.9,24.9,30.1z"/>
	<path d="M51.6,41.4c0-2.1,1.5-3.8,3.6-3.8c2.1,0,3.6,1.7,3.6,3.8c0,2.1-1.5,3.8-3.6,3.8C53.1,45.2,51.6,43.5,51.6,41.4z"/>
</g>
</svg>
